<?xml version="1.0" encoding="iso-8859-1"?>
<!-- Uploaded to: SVG Repo, www.svgrepo.com, Generator: SVG Repo Mixer Tools -->
<svg fill="#000000" height="800px" width="800px" version="1.1" id="Layer_1" xmlns="http://www.w3.org/2000/svg" xmlns:xlink="http://www.w3.org/1999/xlink" 
	 viewBox="0 0 498.791 498.791" xml:space="preserve">
<g>
	<g>
		<path d="M63.785,180.391c-8-3.2-17.6,0-20.8,8c-3.2,8-6.4,16-9.6,25.6c-1.6,8,3.2,16,11.2,19.2c1.6,0,3.2,0,4.8,0
			c6.4,0,12.8-4.8,14.4-9.6c1.6-8,4.8-16,8-22.4C74.985,193.191,71.785,183.591,63.785,180.391z"/>
	</g>
</g>
<g>
	<g>
		<path d="M63.785,321.191c-3.2-12.8-6.4-25.6-6.4-38.4c-1.6-8-9.6-14.4-17.6-14.4c-8,1.6-14.4,8-14.4,17.6c0,16,3.2,32,6.4,46.4
			c3.2,6.4,9.6,11.2,16,11.2c1.6,0,3.2,0,4.8-3.2C60.585,338.791,65.385,329.191,63.785,321.191z"/>
	</g>
</g>
<g>
	<g>
		<path d="M132.585,426.791c-17.6-12.8-32-28.8-44.8-48c-4.8-8-14.4-9.6-22.4-4.8s-9.6,14.4-4.8,22.4c14.4,20.8,32,40,52.8,56
			c3.2,1.6,6.4,3.2,9.6,3.2c4.8,0,9.6-1.6,12.8-6.4C140.585,442.791,138.985,431.591,132.585,426.791z"/>
	</g>
</g>
<g>
	<g>
		<path d="M327.785,468.391c-3.2-9.6-12.8-14.4-20.8-11.2c-36.8,11.2-76.8,11.2-113.6,0c-9.6-1.6-17.6,3.2-20.8,11.2
			c-1.6,9.6,3.2,17.6,11.2,20.8c20.8,6.4,43.2,9.6,65.6,9.6c22.4,0,44.8-3.2,67.2-9.6
			C326.185,485.991,330.985,477.991,327.785,468.391z"/>
	</g>
</g>
<g>
	<g>
		<path d="M457.385,189.991c-22.4-56-65.6-99.2-120-123.2c-36.8-16-76.8-20.8-116.8-16c-9.6,1.6-16,9.6-14.4,17.6
			c1.6,9.6,9.6,16,17.6,14.4c35.2-4.8,68.8,1.6,100.8,14.4c46.4,20.8,83.2,57.6,102.4,105.6s19.2,100.8-1.6,147.2
			c-12.8,28.8-32,56-57.6,75.2c-8,4.8-8,16-3.2,22.4c3.2,4.8,8,6.4,12.8,6.4c3.2,0,6.4,0,11.2-4.8c28.8-22.4,52.8-52.8,67.2-88
			C478.185,306.791,479.785,245.991,457.385,189.991z"/>
	</g>
</g>
<g>
	<g>
		<path d="M287.785,5.991c-4.8-6.4-16-8-22.4-3.2l-59.2,44.8c-8,4.8-8,16-3.2,22.4l46.4,60.8c3.2,4.8,8,6.4,12.8,6.4
			c3.2,0,6.4,0,8-1.6c8-4.8,8-16,3.2-22.4l-36.8-48l48-36.8C292.585,23.591,292.585,12.391,287.785,5.991z"/>
	</g>
</g>
</svg>